<svg width="108" height="53" viewBox="0 0 108 53" fill="none" xmlns="http://www.w3.org/2000/svg">
<g filter="url(#filter0_d)">
<rect x="10" y="6" width="88" height="33" rx="5" fill="#7F71D9"/>
</g>
<path d="M46.5526 25.675H41.9926L41.1526 28H39.7126L43.4926 17.605H45.0676L48.8326 28H47.3926L46.5526 25.675ZM46.1626 24.565L44.2726 19.285L42.3826 24.565H46.1626ZM49.562 23.86C49.562 23.02 49.732 22.285 50.072 21.655C50.412 21.015 50.877 20.52 51.467 20.17C52.067 19.82 52.737 19.645 53.477 19.645C54.117 19.645 54.712 19.795 55.262 20.095C55.812 20.385 56.232 20.77 56.522 21.25V16.9H57.902V28H56.522V26.455C56.252 26.945 55.852 27.35 55.322 27.67C54.792 27.98 54.172 28.135 53.462 28.135C52.732 28.135 52.067 27.955 51.467 27.595C50.877 27.235 50.412 26.73 50.072 26.08C49.732 25.43 49.562 24.69 49.562 23.86ZM56.522 23.875C56.522 23.255 56.397 22.715 56.147 22.255C55.897 21.795 55.557 21.445 55.127 21.205C54.707 20.955 54.242 20.83 53.732 20.83C53.222 20.83 52.757 20.95 52.337 21.19C51.917 21.43 51.582 21.78 51.332 22.24C51.082 22.7 50.957 23.24 50.957 23.86C50.957 24.49 51.082 25.04 51.332 25.51C51.582 25.97 51.917 26.325 52.337 26.575C52.757 26.815 53.222 26.935 53.732 26.935C54.242 26.935 54.707 26.815 55.127 26.575C55.557 26.325 55.897 25.97 56.147 25.51C56.397 25.04 56.522 24.495 56.522 23.875ZM59.2907 23.86C59.2907 23.02 59.4607 22.285 59.8007 21.655C60.1407 21.015 60.6057 20.52 61.1957 20.17C61.7957 19.82 62.4657 19.645 63.2057 19.645C63.8457 19.645 64.4407 19.795 64.9907 20.095C65.5407 20.385 65.9607 20.77 66.2507 21.25V16.9H67.6307V28H66.2507V26.455C65.9807 26.945 65.5807 27.35 65.0507 27.67C64.5207 27.98 63.9007 28.135 63.1907 28.135C62.4607 28.135 61.7957 27.955 61.1957 27.595C60.6057 27.235 60.1407 26.73 59.8007 26.08C59.4607 25.43 59.2907 24.69 59.2907 23.86ZM66.2507 23.875C66.2507 23.255 66.1257 22.715 65.8757 22.255C65.6257 21.795 65.2857 21.445 64.8557 21.205C64.4357 20.955 63.9707 20.83 63.4607 20.83C62.9507 20.83 62.4857 20.95 62.0657 21.19C61.6457 21.43 61.3107 21.78 61.0607 22.24C60.8107 22.7 60.6857 23.24 60.6857 23.86C60.6857 24.49 60.8107 25.04 61.0607 25.51C61.3107 25.97 61.6457 26.325 62.0657 26.575C62.4857 26.815 62.9507 26.935 63.4607 26.935C63.9707 26.935 64.4357 26.815 64.8557 26.575C65.2857 26.325 65.6257 25.97 65.8757 25.51C66.1257 25.04 66.2507 24.495 66.2507 23.875Z" fill="white"/>
<defs>
<filter id="filter0_d" x="0" y="0" width="108" height="53" filterUnits="userSpaceOnUse" color-interpolation-filters="sRGB">
<feFlood flood-opacity="0" result="BackgroundImageFix"/>
<feColorMatrix in="SourceAlpha" type="matrix" values="0 0 0 0 0 0 0 0 0 0 0 0 0 0 0 0 0 0 127 0" result="hardAlpha"/>
<feOffset dy="4"/>
<feGaussianBlur stdDeviation="5"/>
<feColorMatrix type="matrix" values="0 0 0 0 0 0 0 0 0 0 0 0 0 0 0 0 0 0 0.2 0"/>
<feBlend mode="normal" in2="BackgroundImageFix" result="effect1_dropShadow"/>
<feBlend mode="normal" in="SourceGraphic" in2="effect1_dropShadow" result="shape"/>
</filter>
</defs>
</svg>
