<svg width="76" height="49" viewBox="0 0 76 49" fill="none" xmlns="http://www.w3.org/2000/svg">
<path d="M30.5056 29.6982C30.9041 29.9888 31.3855 29.8975 31.9749 29.4658L37.7522 25.2324L43.5295 29.4658C44.1189 29.8975 44.6086 29.9888 44.9988 29.6982C45.3806 29.4077 45.4719 28.9263 45.2395 28.229L42.9734 21.439L48.7922 17.2554C49.3816 16.832 49.614 16.3921 49.4563 15.9272C49.3069 15.479 48.8752 15.2383 48.1282 15.2466L40.9895 15.2881L38.8064 8.47314C38.5823 7.76758 38.2336 7.41895 37.7522 7.41895C37.2708 7.41895 36.9221 7.76758 36.698 8.47314L34.5149 15.2881L27.3762 15.2466C26.6375 15.2383 26.1975 15.479 26.0481 15.9272C25.8904 16.3921 26.1228 16.832 26.7122 17.2554L32.531 21.439L30.2732 28.229C30.0325 28.9263 30.1238 29.4077 30.5056 29.6982Z" fill="#7F71D9"/>
<path d="M13.7053 41.7255C13.7053 41.1135 13.8433 40.5645 14.1193 40.0785C14.3953 39.5865 14.7703 39.2025 15.2443 38.9265C15.7243 38.6505 16.2553 38.5125 16.8373 38.5125C17.5213 38.5125 18.1183 38.6775 18.6283 39.0075C19.1383 39.3375 19.5103 39.8055 19.7443 40.4115H18.7633C18.5893 40.0335 18.3373 39.7425 18.0073 39.5385C17.6833 39.3345 17.2933 39.2325 16.8373 39.2325C16.3993 39.2325 16.0063 39.3345 15.6583 39.5385C15.3103 39.7425 15.0373 40.0335 14.8393 40.4115C14.6413 40.7835 14.5423 41.2215 14.5423 41.7255C14.5423 42.2235 14.6413 42.6615 14.8393 43.0395C15.0373 43.4115 15.3103 43.6995 15.6583 43.9035C16.0063 44.1075 16.3993 44.2095 16.8373 44.2095C17.2933 44.2095 17.6833 44.1105 18.0073 43.9125C18.3373 43.7085 18.5893 43.4175 18.7633 43.0395H19.7443C19.5103 43.6395 19.1383 44.1045 18.6283 44.4345C18.1183 44.7585 17.5213 44.9205 16.8373 44.9205C16.2553 44.9205 15.7243 44.7855 15.2443 44.5155C14.7703 44.2395 14.3953 43.8585 14.1193 43.3725C13.8433 42.8865 13.7053 42.3375 13.7053 41.7255ZM21.5424 40.7355C21.6864 40.4535 21.8904 40.2345 22.1544 40.0785C22.4244 39.9225 22.7514 39.8445 23.1354 39.8445V40.6905H22.9194C22.0014 40.6905 21.5424 41.1885 21.5424 42.1845V44.8665H20.7234V39.9345H21.5424V40.7355ZM28.3409 42.2115C28.3409 42.3675 28.3319 42.5325 28.3139 42.7065H24.3719C24.4019 43.1925 24.5669 43.5735 24.8669 43.8495C25.1729 44.1195 25.5419 44.2545 25.9739 44.2545C26.3279 44.2545 26.6219 44.1735 26.8559 44.0115C27.0959 43.8435 27.2639 43.6215 27.3599 43.3455H28.2419C28.1099 43.8195 27.8459 44.2065 27.4499 44.5065C27.0539 44.8005 26.5619 44.9475 25.9739 44.9475C25.5059 44.9475 25.0859 44.8425 24.7139 44.6325C24.3479 44.4225 24.0599 44.1255 23.8499 43.7415C23.6399 43.3515 23.5349 42.9015 23.5349 42.3915C23.5349 41.8815 23.6369 41.4345 23.8409 41.0505C24.0449 40.6665 24.3299 40.3725 24.6959 40.1685C25.0679 39.9585 25.4939 39.8535 25.9739 39.8535C26.4419 39.8535 26.8559 39.9555 27.2159 40.1595C27.5759 40.3635 27.8519 40.6455 28.0439 41.0055C28.2419 41.3595 28.3409 41.7615 28.3409 42.2115ZM27.4949 42.0405C27.4949 41.7285 27.4259 41.4615 27.2879 41.2395C27.1499 41.0115 26.9609 40.8405 26.7209 40.7265C26.4869 40.6065 26.2259 40.5465 25.9379 40.5465C25.5239 40.5465 25.1699 40.6785 24.8759 40.9425C24.5879 41.2065 24.4229 41.5725 24.3809 42.0405H27.4949ZM28.8759 42.3825C28.8759 41.8785 28.9779 41.4375 29.1819 41.0595C29.3859 40.6755 29.6649 40.3785 30.0189 40.1685C30.3789 39.9585 30.7779 39.8535 31.2159 39.8535C31.6479 39.8535 32.0229 39.9465 32.3409 40.1325C32.6589 40.3185 32.8959 40.5525 33.0519 40.8345V39.9345H33.8799V44.8665H33.0519V43.9485C32.8899 44.2365 32.6469 44.4765 32.3229 44.6685C32.0049 44.8545 31.6329 44.9475 31.2069 44.9475C30.7689 44.9475 30.3729 44.8395 30.0189 44.6235C29.6649 44.4075 29.3859 44.1045 29.1819 43.7145C28.9779 43.3245 28.8759 42.8805 28.8759 42.3825ZM33.0519 42.3915C33.0519 42.0195 32.9769 41.6955 32.8269 41.4195C32.6769 41.1435 32.4729 40.9335 32.2149 40.7895C31.9629 40.6395 31.6839 40.5645 31.3779 40.5645C31.0719 40.5645 30.7929 40.6365 30.5409 40.7805C30.2889 40.9245 30.0879 41.1345 29.9379 41.4105C29.7879 41.6865 29.7129 42.0105 29.7129 42.3825C29.7129 42.7605 29.7879 43.0905 29.9379 43.3725C30.0879 43.6485 30.2889 43.8615 30.5409 44.0115C30.7929 44.1555 31.0719 44.2275 31.3779 44.2275C31.6839 44.2275 31.9629 44.1555 32.2149 44.0115C32.4729 43.8615 32.6769 43.6485 32.8269 43.3725C32.9769 43.0905 33.0519 42.7635 33.0519 42.3915ZM36.0229 40.6095V43.5165C36.0229 43.7565 36.0739 43.9275 36.1759 44.0295C36.2779 44.1255 36.4549 44.1735 36.7069 44.1735H37.3099V44.8665H36.5719C36.1159 44.8665 35.7739 44.7615 35.5459 44.5515C35.3179 44.3415 35.2039 43.9965 35.2039 43.5165V40.6095H34.5649V39.9345H35.2039V38.6925H36.0229V39.9345H37.3099V40.6095H36.0229ZM42.5623 42.2115C42.5623 42.3675 42.5533 42.5325 42.5353 42.7065H38.5933C38.6233 43.1925 38.7883 43.5735 39.0883 43.8495C39.3943 44.1195 39.7633 44.2545 40.1953 44.2545C40.5493 44.2545 40.8433 44.1735 41.0773 44.0115C41.3173 43.8435 41.4853 43.6215 41.5813 43.3455H42.4633C42.3313 43.8195 42.0673 44.2065 41.6713 44.5065C41.2753 44.8005 40.7833 44.9475 40.1953 44.9475C39.7273 44.9475 39.3073 44.8425 38.9353 44.6325C38.5693 44.4225 38.2813 44.1255 38.0713 43.7415C37.8613 43.3515 37.7563 42.9015 37.7563 42.3915C37.7563 41.8815 37.8583 41.4345 38.0623 41.0505C38.2663 40.6665 38.5513 40.3725 38.9173 40.1685C39.2893 39.9585 39.7153 39.8535 40.1953 39.8535C40.6633 39.8535 41.0773 39.9555 41.4373 40.1595C41.7973 40.3635 42.0733 40.6455 42.2653 41.0055C42.4633 41.3595 42.5623 41.7615 42.5623 42.2115ZM41.7163 42.0405C41.7163 41.7285 41.6473 41.4615 41.5093 41.2395C41.3713 41.0115 41.1823 40.8405 40.9423 40.7265C40.7083 40.6065 40.4473 40.5465 40.1593 40.5465C39.7453 40.5465 39.3913 40.6785 39.0973 40.9425C38.8093 41.2065 38.6443 41.5725 38.6023 42.0405H41.7163ZM50.4947 44.8665H49.6757L46.3817 39.8715V44.8665H45.5627V38.5845H46.3817L49.6757 43.5705V38.5845H50.4947V44.8665ZM56.1509 42.2115C56.1509 42.3675 56.1419 42.5325 56.1239 42.7065H52.1819C52.2119 43.1925 52.3769 43.5735 52.6769 43.8495C52.9829 44.1195 53.3519 44.2545 53.7839 44.2545C54.1379 44.2545 54.4319 44.1735 54.6659 44.0115C54.9059 43.8435 55.0739 43.6215 55.1699 43.3455H56.0519C55.9199 43.8195 55.6559 44.2065 55.2599 44.5065C54.8639 44.8005 54.3719 44.9475 53.7839 44.9475C53.3159 44.9475 52.8959 44.8425 52.5239 44.6325C52.1579 44.4225 51.8699 44.1255 51.6599 43.7415C51.4499 43.3515 51.3449 42.9015 51.3449 42.3915C51.3449 41.8815 51.4469 41.4345 51.6509 41.0505C51.8549 40.6665 52.1399 40.3725 52.5059 40.1685C52.8779 39.9585 53.3039 39.8535 53.7839 39.8535C54.2519 39.8535 54.6659 39.9555 55.0259 40.1595C55.3859 40.3635 55.6619 40.6455 55.8539 41.0055C56.0519 41.3595 56.1509 41.7615 56.1509 42.2115ZM55.3049 42.0405C55.3049 41.7285 55.2359 41.4615 55.0979 41.2395C54.9599 41.0115 54.7709 40.8405 54.5309 40.7265C54.2969 40.6065 54.0359 40.5465 53.7479 40.5465C53.3339 40.5465 52.9799 40.6785 52.6859 40.9425C52.3979 41.2065 52.2329 41.5725 52.1909 42.0405H55.3049ZM63.5619 39.9345L62.0229 44.8665H61.1769L59.9889 40.9515L58.8009 44.8665H57.9549L56.4069 39.9345H57.2439L58.3779 44.0745L59.6019 39.9345H60.4389L61.6359 44.0835L62.7519 39.9345H63.5619Z" fill="#7F71D9"/>
</svg>
