<svg width="108" height="53" viewBox="0 0 108 53" fill="none" xmlns="http://www.w3.org/2000/svg">
<g filter="url(#filter0_d)">
<rect x="10" y="6" width="88" height="33" rx="5" fill="#7F71D9"/>
</g>
<path d="M39.4737 17.545C40.6137 17.545 41.5987 17.76 42.4287 18.19C43.2687 18.61 43.9087 19.215 44.3487 20.005C44.7987 20.795 45.0237 21.725 45.0237 22.795C45.0237 23.865 44.7987 24.795 44.3487 25.585C43.9087 26.365 43.2687 26.965 42.4287 27.385C41.5987 27.795 40.6137 28 39.4737 28H36.2187V17.545H39.4737ZM39.4737 26.875C40.8237 26.875 41.8537 26.52 42.5637 25.81C43.2737 25.09 43.6287 24.085 43.6287 22.795C43.6287 21.495 43.2687 20.48 42.5487 19.75C41.8387 19.02 40.8137 18.655 39.4737 18.655H37.5837V26.875H39.4737ZM50.0011 28.135C49.2311 28.135 48.5311 27.96 47.9011 27.61C47.2811 27.26 46.7911 26.765 46.4311 26.125C46.0811 25.475 45.9061 24.725 45.9061 23.875C45.9061 23.035 46.0861 22.295 46.4461 21.655C46.8161 21.005 47.3161 20.51 47.9461 20.17C48.5761 19.82 49.2811 19.645 50.0611 19.645C50.8411 19.645 51.5461 19.82 52.1761 20.17C52.8061 20.51 53.3011 21 53.6611 21.64C54.0311 22.28 54.2161 23.025 54.2161 23.875C54.2161 24.725 54.0261 25.475 53.6461 26.125C53.2761 26.765 52.7711 27.26 52.1311 27.61C51.4911 27.96 50.7811 28.135 50.0011 28.135ZM50.0011 26.935C50.4911 26.935 50.9511 26.82 51.3811 26.59C51.8111 26.36 52.1561 26.015 52.4161 25.555C52.6861 25.095 52.8211 24.535 52.8211 23.875C52.8211 23.215 52.6911 22.655 52.4311 22.195C52.1711 21.735 51.8311 21.395 51.4111 21.175C50.9911 20.945 50.5361 20.83 50.0461 20.83C49.5461 20.83 49.0861 20.945 48.6661 21.175C48.2561 21.395 47.9261 21.735 47.6761 22.195C47.4261 22.655 47.3011 23.215 47.3011 23.875C47.3011 24.545 47.4211 25.11 47.6611 25.57C47.9111 26.03 48.2411 26.375 48.6511 26.605C49.0611 26.825 49.5111 26.935 50.0011 26.935ZM59.6079 19.63C60.6079 19.63 61.4179 19.935 62.0379 20.545C62.6579 21.145 62.9679 22.015 62.9679 23.155V28H61.6179V23.35C61.6179 22.53 61.4129 21.905 61.0029 21.475C60.5929 21.035 60.0329 20.815 59.3229 20.815C58.6029 20.815 58.0279 21.04 57.5979 21.49C57.1779 21.94 56.9679 22.595 56.9679 23.455V28H55.6029V19.78H56.9679V20.95C57.2379 20.53 57.6029 20.205 58.0629 19.975C58.5329 19.745 59.0479 19.63 59.6079 19.63ZM72.2896 23.575C72.2896 23.835 72.2746 24.11 72.2446 24.4H65.6746C65.7246 25.21 65.9996 25.845 66.4996 26.305C67.0096 26.755 67.6246 26.98 68.3446 26.98C68.9346 26.98 69.4246 26.845 69.8146 26.575C70.2146 26.295 70.4946 25.925 70.6546 25.465H72.1246C71.9046 26.255 71.4646 26.9 70.8046 27.4C70.1446 27.89 69.3246 28.135 68.3446 28.135C67.5646 28.135 66.8646 27.96 66.2446 27.61C65.6346 27.26 65.1546 26.765 64.8046 26.125C64.4546 25.475 64.2796 24.725 64.2796 23.875C64.2796 23.025 64.4496 22.28 64.7896 21.64C65.1296 21 65.6046 20.51 66.2146 20.17C66.8346 19.82 67.5446 19.645 68.3446 19.645C69.1246 19.645 69.8146 19.815 70.4146 20.155C71.0146 20.495 71.4746 20.965 71.7946 21.565C72.1246 22.155 72.2896 22.825 72.2896 23.575ZM70.8796 23.29C70.8796 22.77 70.7646 22.325 70.5346 21.955C70.3046 21.575 69.9896 21.29 69.5896 21.1C69.1996 20.9 68.7646 20.8 68.2846 20.8C67.5946 20.8 67.0046 21.02 66.5146 21.46C66.0346 21.9 65.7596 22.51 65.6896 23.29H70.8796Z" fill="white"/>
<defs>
<filter id="filter0_d" x="0" y="0" width="108" height="53" filterUnits="userSpaceOnUse" color-interpolation-filters="sRGB">
<feFlood flood-opacity="0" result="BackgroundImageFix"/>
<feColorMatrix in="SourceAlpha" type="matrix" values="0 0 0 0 0 0 0 0 0 0 0 0 0 0 0 0 0 0 127 0" result="hardAlpha"/>
<feOffset dy="4"/>
<feGaussianBlur stdDeviation="5"/>
<feColorMatrix type="matrix" values="0 0 0 0 0 0 0 0 0 0 0 0 0 0 0 0 0 0 0.2 0"/>
<feBlend mode="normal" in2="BackgroundImageFix" result="effect1_dropShadow"/>
<feBlend mode="normal" in="SourceGraphic" in2="effect1_dropShadow" result="shape"/>
</filter>
</defs>
</svg>
