<svg width="76" height="49" viewBox="0 0 76 49" fill="none" xmlns="http://www.w3.org/2000/svg">
<path d="M30.5056 29.6982C30.9041 29.9888 31.3855 29.8975 31.9749 29.4658L37.7522 25.2324L43.5295 29.4658C44.1189 29.8975 44.6086 29.9888 44.9988 29.6982C45.3806 29.4077 45.4719 28.9263 45.2395 28.229L42.9734 21.439L48.7922 17.2554C49.3816 16.832 49.614 16.3921 49.4563 15.9272C49.3069 15.479 48.8752 15.2383 48.1282 15.2466L40.9895 15.2881L38.8064 8.47314C38.5823 7.76758 38.2336 7.41895 37.7522 7.41895C37.2708 7.41895 36.9221 7.76758 36.698 8.47314L34.5149 15.2881L27.3762 15.2466C26.6375 15.2383 26.1975 15.479 26.0481 15.9272C25.8904 16.3921 26.1228 16.832 26.7122 17.2554L32.531 21.439L30.2732 28.229C30.0325 28.9263 30.1238 29.4077 30.5056 29.6982Z" fill="#7F71D9"/>
<path d="M30.9102 39.2595V41.3565H33.1962V42.0315H30.9102V44.1915H33.4662V44.8665H30.0912V38.5845H33.4662V39.2595H30.9102ZM38.1735 43.4715H35.4375L34.9335 44.8665H34.0695L36.3375 38.6295H37.2825L39.5415 44.8665H38.6775L38.1735 43.4715ZM37.9395 42.8055L36.8055 39.6375L35.6715 42.8055H37.9395ZM45.0419 40.4115C44.8679 40.0455 44.6159 39.7635 44.2859 39.5655C43.9559 39.3615 43.5719 39.2595 43.1339 39.2595C42.6959 39.2595 42.2999 39.3615 41.9459 39.5655C41.5979 39.7635 41.3219 40.0515 41.1179 40.4295C40.9199 40.8015 40.8209 41.2335 40.8209 41.7255C40.8209 42.2175 40.9199 42.6495 41.1179 43.0215C41.3219 43.3935 41.5979 43.6815 41.9459 43.8855C42.2999 44.0835 42.6959 44.1825 43.1339 44.1825C43.7459 44.1825 44.2499 43.9995 44.6459 43.6335C45.0419 43.2675 45.2729 42.7725 45.3389 42.1485H42.8369V41.4825H46.2119V42.1125C46.1639 42.6285 46.0019 43.1025 45.7259 43.5345C45.4499 43.9605 45.0869 44.2995 44.6369 44.5515C44.1869 44.7975 43.6859 44.9205 43.1339 44.9205C42.5519 44.9205 42.0209 44.7855 41.5409 44.5155C41.0609 44.2395 40.6799 43.8585 40.3979 43.3725C40.1219 42.8865 39.9839 42.3375 39.9839 41.7255C39.9839 41.1135 40.1219 40.5645 40.3979 40.0785C40.6799 39.5865 41.0609 39.2055 41.5409 38.9355C42.0209 38.6595 42.5519 38.5215 43.1339 38.5215C43.7999 38.5215 44.3879 38.6865 44.8979 39.0165C45.4139 39.3465 45.7889 39.8115 46.0229 40.4115H45.0419Z" fill="#7F71D9"/>
</svg>
