<svg width="76" height="49" viewBox="0 0 76 49" fill="none" xmlns="http://www.w3.org/2000/svg">
<path d="M30.5056 29.6982C30.9041 29.9888 31.3855 29.8975 31.9749 29.4658L37.7522 25.2324L43.5295 29.4658C44.1189 29.8975 44.6086 29.9888 44.9988 29.6982C45.3806 29.4077 45.4719 28.9263 45.2395 28.229L42.9734 21.439L48.7922 17.2554C49.3816 16.832 49.614 16.3921 49.4563 15.9272C49.3069 15.479 48.8752 15.2383 48.1282 15.2466L40.9895 15.2881L38.8064 8.47314C38.5823 7.76758 38.2336 7.41895 37.7522 7.41895C37.2708 7.41895 36.9221 7.76758 36.698 8.47314L34.5149 15.2881L27.3762 15.2466C26.6375 15.2383 26.1975 15.479 26.0481 15.9272C25.8904 16.3921 26.1228 16.832 26.7122 17.2554L32.531 21.439L30.2732 28.229C30.0325 28.9263 30.1238 29.4077 30.5056 29.6982Z" fill="#7F71D9"/>
<path d="M30.9651 38.5935V44.8665H30.1461V42.0225H26.9511V44.8665H26.1321V38.5935H26.9511V41.3475H30.1461V38.5935H30.9651ZM34.2745 44.9475C33.8125 44.9475 33.3925 44.8425 33.0145 44.6325C32.6425 44.4225 32.3485 44.1255 32.1325 43.7415C31.9225 43.3515 31.8175 42.9015 31.8175 42.3915C31.8175 41.8875 31.9255 41.4435 32.1415 41.0595C32.3635 40.6695 32.6635 40.3725 33.0415 40.1685C33.4195 39.9585 33.8425 39.8535 34.3105 39.8535C34.7785 39.8535 35.2015 39.9585 35.5795 40.1685C35.9575 40.3725 36.2545 40.6665 36.4705 41.0505C36.6925 41.4345 36.8035 41.8815 36.8035 42.3915C36.8035 42.9015 36.6895 43.3515 36.4615 43.7415C36.2395 44.1255 35.9365 44.4225 35.5525 44.6325C35.1685 44.8425 34.7425 44.9475 34.2745 44.9475ZM34.2745 44.2275C34.5685 44.2275 34.8445 44.1585 35.1025 44.0205C35.3605 43.8825 35.5675 43.6755 35.7235 43.3995C35.8855 43.1235 35.9665 42.7875 35.9665 42.3915C35.9665 41.9955 35.8885 41.6595 35.7325 41.3835C35.5765 41.1075 35.3725 40.9035 35.1205 40.7715C34.8685 40.6335 34.5955 40.5645 34.3015 40.5645C34.0015 40.5645 33.7255 40.6335 33.4735 40.7715C33.2275 40.9035 33.0295 41.1075 32.8795 41.3835C32.7295 41.6595 32.6545 41.9955 32.6545 42.3915C32.6545 42.7935 32.7265 43.1325 32.8705 43.4085C33.0205 43.6845 33.2185 43.8915 33.4645 44.0295C33.7105 44.1615 33.9805 44.2275 34.2745 44.2275ZM43.5714 39.8445C43.9554 39.8445 44.2974 39.9255 44.5974 40.0875C44.8974 40.2435 45.1344 40.4805 45.3084 40.7985C45.4824 41.1165 45.5694 41.5035 45.5694 41.9595V44.8665H44.7594V42.0765C44.7594 41.5845 44.6364 41.2095 44.3904 40.9515C44.1504 40.6875 43.8234 40.5555 43.4094 40.5555C42.9834 40.5555 42.6444 40.6935 42.3924 40.9695C42.1404 41.2395 42.0144 41.6325 42.0144 42.1485V44.8665H41.2044V42.0765C41.2044 41.5845 41.0814 41.2095 40.8354 40.9515C40.5954 40.6875 40.2684 40.5555 39.8544 40.5555C39.4284 40.5555 39.0894 40.6935 38.8374 40.9695C38.5854 41.2395 38.4594 41.6325 38.4594 42.1485V44.8665H37.6404V39.9345H38.4594V40.6455C38.6214 40.3875 38.8374 40.1895 39.1074 40.0515C39.3834 39.9135 39.6864 39.8445 40.0164 39.8445C40.4304 39.8445 40.7964 39.9375 41.1144 40.1235C41.4324 40.3095 41.6694 40.5825 41.8254 40.9425C41.9634 40.5945 42.1914 40.3245 42.5094 40.1325C42.8274 39.9405 43.1814 39.8445 43.5714 39.8445ZM51.1728 42.2115C51.1728 42.3675 51.1638 42.5325 51.1458 42.7065H47.2038C47.2338 43.1925 47.3988 43.5735 47.6988 43.8495C48.0048 44.1195 48.3738 44.2545 48.8058 44.2545C49.1598 44.2545 49.4538 44.1735 49.6878 44.0115C49.9278 43.8435 50.0958 43.6215 50.1918 43.3455H51.0738C50.9418 43.8195 50.6778 44.2065 50.2818 44.5065C49.8858 44.8005 49.3938 44.9475 48.8058 44.9475C48.3378 44.9475 47.9178 44.8425 47.5458 44.6325C47.1798 44.4225 46.8918 44.1255 46.6818 43.7415C46.4718 43.3515 46.3668 42.9015 46.3668 42.3915C46.3668 41.8815 46.4688 41.4345 46.6728 41.0505C46.8768 40.6665 47.1618 40.3725 47.5278 40.1685C47.8998 39.9585 48.3258 39.8535 48.8058 39.8535C49.2738 39.8535 49.6878 39.9555 50.0478 40.1595C50.4078 40.3635 50.6838 40.6455 50.8758 41.0055C51.0738 41.3595 51.1728 41.7615 51.1728 42.2115ZM50.3268 42.0405C50.3268 41.7285 50.2578 41.4615 50.1198 41.2395C49.9818 41.0115 49.7928 40.8405 49.5528 40.7265C49.3188 40.6065 49.0578 40.5465 48.7698 40.5465C48.3558 40.5465 48.0018 40.6785 47.7078 40.9425C47.4198 41.2065 47.2548 41.5725 47.2128 42.0405H50.3268Z" fill="#7F71D9"/>
</svg>
