<svg width="23" height="23" viewBox="0 0 23 23" fill="none" xmlns="http://www.w3.org/2000/svg">
<path d="M16.5422 6.26375L16.2461 15.9808C16.2099 17.1712 15.7022 18.2984 14.8348 19.1145C13.9674 19.9306 12.8113 20.3687 11.6209 20.3325C10.4305 20.2962 9.30327 19.7885 8.48717 18.9211C7.67107 18.0537 7.23297 16.8977 7.26924 15.7073L7.5653 5.99024C7.58948 5.19663 7.92793 4.44513 8.50619 3.90107C9.08446 3.357 9.85517 3.06493 10.6488 3.08911C11.4424 3.11329 12.1939 3.45174 12.7379 4.03C13.282 4.60827 13.5741 5.37897 13.5499 6.17258L13.2484 15.8947C13.2363 16.2915 13.0671 16.6673 12.7779 16.9393C12.4888 17.2114 12.1035 17.3574 11.7066 17.3453C11.3098 17.3332 10.9341 17.164 10.6621 16.8749C10.39 16.5857 10.244 16.2004 10.2561 15.8036L10.5347 6.83213" stroke="#666666" stroke-linecap="round" stroke-linejoin="round"/>
</svg>
