<svg width="27" height="17" viewBox="0 0 27 17" fill="none" xmlns="http://www.w3.org/2000/svg">
<path fill-rule="evenodd" clip-rule="evenodd" d="M8.39488 0.0505348C9.31606 -0.00430361 10.2362 8.3464e-05 11.1574 8.3464e-05C11.1637 8.3464e-05 15.8252 8.3464e-05 15.8252 8.3464e-05C16.7644 8.3464e-05 17.6845 -0.00430361 18.6051 0.0505348C19.4421 0.0998894 20.2574 0.205179 21.069 0.440436C22.7774 0.935079 24.2693 1.96824 25.3477 3.43297C26.4198 4.88838 27 6.67008 27 8.49949C27 10.3311 26.4198 12.1117 25.3477 13.5671C24.2693 15.0313 22.7774 16.065 21.069 16.5596C20.2574 16.7949 19.4421 16.8996 18.6051 16.9495C17.6845 17.0044 16.7644 16.9995 15.8432 16.9995C15.8368 16.9995 11.1743 17 11.1743 17C10.2362 16.9995 9.31606 17.0044 8.39488 16.9495C7.55841 16.8996 6.74312 16.7949 5.93153 16.5596C4.22312 16.065 2.73124 15.0313 1.65282 13.5671C0.580765 12.1117 0 10.3311 0 8.50004C0 6.67008 0.580765 4.88838 1.65282 3.43297C2.73124 1.96824 4.22312 0.935079 5.93153 0.440436C6.74312 0.205179 7.55841 0.0998894 8.39488 0.0505348Z" fill="#7F71D9"/>
</svg>
