<svg width="76" height="49" viewBox="0 0 76 49" fill="none" xmlns="http://www.w3.org/2000/svg">
<path d="M30.5056 29.6982C30.9041 29.9888 31.3855 29.8975 31.9749 29.4658L37.7522 25.2324L43.5295 29.4658C44.1189 29.8975 44.6086 29.9888 44.9988 29.6982C45.3806 29.4077 45.4719 28.9263 45.2395 28.229L42.9734 21.439L48.7922 17.2554C49.3816 16.832 49.614 16.3921 49.4563 15.9272C49.3069 15.479 48.8752 15.2383 48.1282 15.2466L40.9895 15.2881L38.8064 8.47314C38.5823 7.76758 38.2336 7.41895 37.7522 7.41895C37.2708 7.41895 36.9221 7.76758 36.698 8.47314L34.5149 15.2881L27.3762 15.2466C26.6375 15.2383 26.1975 15.479 26.0481 15.9272C25.8904 16.3921 26.1228 16.832 26.7122 17.2554L32.531 21.439L30.2732 28.229C30.0325 28.9263 30.1238 29.4077 30.5056 29.6982Z" fill="#7F71D9"/>
<path d="M29.9576 40.4295C29.9576 40.9515 29.7776 41.3865 29.4176 41.7345C29.0636 42.0765 28.5206 42.2475 27.7886 42.2475H26.5826V44.8665H25.7636V38.5935H27.7886C28.4966 38.5935 29.0336 38.7645 29.3996 39.1065C29.7716 39.4485 29.9576 39.8895 29.9576 40.4295ZM27.7886 41.5725C28.2446 41.5725 28.5806 41.4735 28.7966 41.2755C29.0126 41.0775 29.1206 40.7955 29.1206 40.4295C29.1206 39.6555 28.6766 39.2685 27.7886 39.2685H26.5826V41.5725H27.7886ZM31.5545 40.7355C31.6985 40.4535 31.9025 40.2345 32.1665 40.0785C32.4365 39.9225 32.7635 39.8445 33.1475 39.8445V40.6905H32.9315C32.0135 40.6905 31.5545 41.1885 31.5545 42.1845V44.8665H30.7355V39.9345H31.5545V40.7355ZM36.0039 44.9475C35.5419 44.9475 35.1219 44.8425 34.7439 44.6325C34.3719 44.4225 34.0779 44.1255 33.8619 43.7415C33.6519 43.3515 33.5469 42.9015 33.5469 42.3915C33.5469 41.8875 33.6549 41.4435 33.8709 41.0595C34.0929 40.6695 34.3929 40.3725 34.7709 40.1685C35.1489 39.9585 35.5719 39.8535 36.0399 39.8535C36.5079 39.8535 36.9309 39.9585 37.3089 40.1685C37.6869 40.3725 37.9839 40.6665 38.1999 41.0505C38.4219 41.4345 38.5329 41.8815 38.5329 42.3915C38.5329 42.9015 38.4189 43.3515 38.1909 43.7415C37.9689 44.1255 37.6659 44.4225 37.2819 44.6325C36.8979 44.8425 36.4719 44.9475 36.0039 44.9475ZM36.0039 44.2275C36.2979 44.2275 36.5739 44.1585 36.8319 44.0205C37.0899 43.8825 37.2969 43.6755 37.4529 43.3995C37.6149 43.1235 37.6959 42.7875 37.6959 42.3915C37.6959 41.9955 37.6179 41.6595 37.4619 41.3835C37.3059 41.1075 37.1019 40.9035 36.8499 40.7715C36.5979 40.6335 36.3249 40.5645 36.0309 40.5645C35.7309 40.5645 35.4549 40.6335 35.2029 40.7715C34.9569 40.9035 34.7589 41.1075 34.6089 41.3835C34.4589 41.6595 34.3839 41.9955 34.3839 42.3915C34.3839 42.7935 34.4559 43.1325 34.5999 43.4085C34.7499 43.6845 34.9479 43.8915 35.1939 44.0295C35.4399 44.1615 35.7099 44.2275 36.0039 44.2275ZM41.3768 40.6095H40.3418V44.8665H39.5228V40.6095H38.8838V39.9345H39.5228V39.5835C39.5228 39.0315 39.6638 38.6295 39.9458 38.3775C40.2338 38.1195 40.6928 37.9905 41.3228 37.9905V38.6745C40.9628 38.6745 40.7078 38.7465 40.5578 38.8905C40.4138 39.0285 40.3418 39.2595 40.3418 39.5835V39.9345H41.3768V40.6095ZM42.5147 39.1335C42.3587 39.1335 42.2267 39.0795 42.1187 38.9715C42.0107 38.8635 41.9567 38.7315 41.9567 38.5755C41.9567 38.4195 42.0107 38.2875 42.1187 38.1795C42.2267 38.0715 42.3587 38.0175 42.5147 38.0175C42.6647 38.0175 42.7907 38.0715 42.8927 38.1795C43.0007 38.2875 43.0547 38.4195 43.0547 38.5755C43.0547 38.7315 43.0007 38.8635 42.8927 38.9715C42.7907 39.0795 42.6647 39.1335 42.5147 39.1335ZM42.9107 39.9345V44.8665H42.0917V39.9345H42.9107ZM44.8855 38.2065V44.8665H44.0665V38.2065H44.8855ZM50.5414 42.2115C50.5414 42.3675 50.5324 42.5325 50.5144 42.7065H46.5724C46.6024 43.1925 46.7674 43.5735 47.0674 43.8495C47.3734 44.1195 47.7424 44.2545 48.1744 44.2545C48.5284 44.2545 48.8224 44.1735 49.0564 44.0115C49.2964 43.8435 49.4644 43.6215 49.5604 43.3455H50.4424C50.3104 43.8195 50.0464 44.2065 49.6504 44.5065C49.2544 44.8005 48.7624 44.9475 48.1744 44.9475C47.7064 44.9475 47.2864 44.8425 46.9144 44.6325C46.5484 44.4225 46.2604 44.1255 46.0504 43.7415C45.8404 43.3515 45.7354 42.9015 45.7354 42.3915C45.7354 41.8815 45.8374 41.4345 46.0414 41.0505C46.2454 40.6665 46.5304 40.3725 46.8964 40.1685C47.2684 39.9585 47.6944 39.8535 48.1744 39.8535C48.6424 39.8535 49.0564 39.9555 49.4164 40.1595C49.7764 40.3635 50.0524 40.6455 50.2444 41.0055C50.4424 41.3595 50.5414 41.7615 50.5414 42.2115ZM49.6954 42.0405C49.6954 41.7285 49.6264 41.4615 49.4884 41.2395C49.3504 41.0115 49.1614 40.8405 48.9214 40.7265C48.6874 40.6065 48.4264 40.5465 48.1384 40.5465C47.7244 40.5465 47.3704 40.6785 47.0764 40.9425C46.7884 41.2065 46.6234 41.5725 46.5814 42.0405H49.6954Z" fill="#7F71D9"/>
</svg>
