<svg width="329" height="67" viewBox="0 0 329 67" fill="none" xmlns="http://www.w3.org/2000/svg">
<g filter="url(#filter0_d)">
<rect x="10" y="6" width="309" height="47" rx="5" fill="#7F71D9"/>
</g>
<path d="M108.113 35.9231C107.413 35.9231 106.783 35.8031 106.223 35.5631C105.663 35.3131 105.223 34.9631 104.903 34.5131C104.583 34.0631 104.423 33.5381 104.423 32.9381H106.253C106.293 33.3881 106.468 33.7581 106.778 34.0481C107.098 34.3381 107.543 34.4831 108.113 34.4831C108.703 34.4831 109.163 34.3431 109.493 34.0631C109.823 33.7731 109.988 33.4031 109.988 32.9531C109.988 32.6031 109.883 32.3181 109.673 32.0981C109.473 31.8781 109.218 31.7081 108.908 31.5881C108.608 31.4681 108.188 31.3381 107.648 31.1981C106.968 31.0181 106.413 30.8381 105.983 30.6581C105.563 30.4681 105.203 30.1781 104.903 29.7881C104.603 29.3981 104.453 28.8781 104.453 28.2281C104.453 27.6281 104.603 27.1031 104.903 26.6531C105.203 26.2031 105.623 25.8581 106.163 25.6181C106.703 25.3781 107.328 25.2581 108.038 25.2581C109.048 25.2581 109.873 25.5131 110.513 26.0231C111.163 26.5231 111.523 27.2131 111.593 28.0931H109.703C109.673 27.7131 109.493 27.3881 109.163 27.1181C108.833 26.8481 108.398 26.7131 107.858 26.7131C107.368 26.7131 106.968 26.8381 106.658 27.0881C106.348 27.3381 106.193 27.6981 106.193 28.1681C106.193 28.4881 106.288 28.7531 106.478 28.9631C106.678 29.1631 106.928 29.3231 107.228 29.4431C107.528 29.5631 107.938 29.6931 108.458 29.8331C109.148 30.0231 109.708 30.2131 110.138 30.4031C110.578 30.5931 110.948 30.8881 111.248 31.2881C111.558 31.6781 111.713 32.2031 111.713 32.8631C111.713 33.3931 111.568 33.8931 111.278 34.3631C110.998 34.8331 110.583 35.2131 110.033 35.5031C109.493 35.7831 108.853 35.9231 108.113 35.9231ZM112.753 31.6481C112.753 30.8181 112.923 30.0831 113.263 29.4431C113.613 28.8031 114.083 28.3081 114.673 27.9581C115.273 27.5981 115.933 27.4181 116.653 27.4181C117.303 27.4181 117.868 27.5481 118.348 27.8081C118.838 28.0581 119.228 28.3731 119.518 28.7531V27.5531H121.243V35.8181H119.518V34.5881C119.228 34.9781 118.833 35.3031 118.333 35.5631C117.833 35.8231 117.263 35.9531 116.623 35.9531C115.913 35.9531 115.263 35.7731 114.673 35.4131C114.083 35.0431 113.613 34.5331 113.263 33.8831C112.923 33.2231 112.753 32.4781 112.753 31.6481ZM119.518 31.6781C119.518 31.1081 119.398 30.6131 119.158 30.1931C118.928 29.7731 118.623 29.4531 118.243 29.2331C117.863 29.0131 117.453 28.9031 117.013 28.9031C116.573 28.9031 116.163 29.0131 115.783 29.2331C115.403 29.4431 115.093 29.7581 114.853 30.1781C114.623 30.5881 114.508 31.0781 114.508 31.6481C114.508 32.2181 114.623 32.7181 114.853 33.1481C115.093 33.5781 115.403 33.9081 115.783 34.1381C116.173 34.3581 116.583 34.4681 117.013 34.4681C117.453 34.4681 117.863 34.3581 118.243 34.1381C118.623 33.9181 118.928 33.5981 119.158 33.1781C119.398 32.7481 119.518 32.2481 119.518 31.6781ZM126.276 34.2881L128.616 27.5531H130.431L127.281 35.8181H125.241L122.106 27.5531H123.936L126.276 34.2881ZM138.89 31.4831C138.89 31.7931 138.87 32.0731 138.83 32.3231H132.515C132.565 32.9831 132.81 33.5131 133.25 33.9131C133.69 34.3131 134.23 34.5131 134.87 34.5131C135.79 34.5131 136.44 34.1281 136.82 33.3581H138.665C138.415 34.1181 137.96 34.7431 137.3 35.2331C136.65 35.7131 135.84 35.9531 134.87 35.9531C134.08 35.9531 133.37 35.7781 132.74 35.4281C132.12 35.0681 131.63 34.5681 131.27 33.9281C130.92 33.2781 130.745 32.5281 130.745 31.6781C130.745 30.8281 130.915 30.0831 131.255 29.4431C131.605 28.7931 132.09 28.2931 132.71 27.9431C133.34 27.5931 134.06 27.4181 134.87 27.4181C135.65 27.4181 136.345 27.5881 136.955 27.9281C137.565 28.2681 138.04 28.7481 138.38 29.3681C138.72 29.9781 138.89 30.6831 138.89 31.4831ZM137.105 30.9431C137.095 30.3131 136.87 29.8081 136.43 29.4281C135.99 29.0481 135.445 28.8581 134.795 28.8581C134.205 28.8581 133.7 29.0481 133.28 29.4281C132.86 29.7981 132.61 30.3031 132.53 30.9431H137.105ZM143.083 31.6481C143.083 30.8181 143.253 30.0831 143.593 29.4431C143.943 28.8031 144.413 28.3081 145.003 27.9581C145.603 27.5981 146.263 27.4181 146.983 27.4181C147.633 27.4181 148.198 27.5481 148.678 27.8081C149.168 28.0581 149.558 28.3731 149.848 28.7531V27.5531H151.573V35.8181H149.848V34.5881C149.558 34.9781 149.163 35.3031 148.663 35.5631C148.163 35.8231 147.593 35.9531 146.953 35.9531C146.243 35.9531 145.593 35.7731 145.003 35.4131C144.413 35.0431 143.943 34.5331 143.593 33.8831C143.253 33.2231 143.083 32.4781 143.083 31.6481ZM149.848 31.6781C149.848 31.1081 149.728 30.6131 149.488 30.1931C149.258 29.7731 148.953 29.4531 148.573 29.2331C148.193 29.0131 147.783 28.9031 147.343 28.9031C146.903 28.9031 146.493 29.0131 146.113 29.2331C145.733 29.4431 145.423 29.7581 145.183 30.1781C144.953 30.5881 144.838 31.0781 144.838 31.6481C144.838 32.2181 144.953 32.7181 145.183 33.1481C145.423 33.5781 145.733 33.9081 146.113 34.1381C146.503 34.3581 146.913 34.4681 147.343 34.4681C147.783 34.4681 148.193 34.3581 148.573 34.1381C148.953 33.9181 149.258 33.5981 149.488 33.1781C149.728 32.7481 149.848 32.2481 149.848 31.6781ZM157.581 27.4181C158.231 27.4181 158.811 27.5531 159.321 27.8231C159.841 28.0931 160.246 28.4931 160.536 29.0231C160.826 29.5531 160.971 30.1931 160.971 30.9431V35.8181H159.276V31.1981C159.276 30.4581 159.091 29.8931 158.721 29.5031C158.351 29.1031 157.846 28.9031 157.206 28.9031C156.566 28.9031 156.056 29.1031 155.676 29.5031C155.306 29.8931 155.121 30.4581 155.121 31.1981V35.8181H153.411V27.5531H155.121V28.4981C155.401 28.1581 155.756 27.8931 156.186 27.7031C156.626 27.5131 157.091 27.4181 157.581 27.4181ZM162.175 31.6481C162.175 30.8181 162.345 30.0831 162.685 29.4431C163.035 28.8031 163.505 28.3081 164.095 27.9581C164.695 27.5981 165.36 27.4181 166.09 27.4181C166.63 27.4181 167.16 27.5381 167.68 27.7781C168.21 28.0081 168.63 28.3181 168.94 28.7081V24.7181H170.665V35.8181H168.94V34.5731C168.66 34.9731 168.27 35.3031 167.77 35.5631C167.28 35.8231 166.715 35.9531 166.075 35.9531C165.355 35.9531 164.695 35.7731 164.095 35.4131C163.505 35.0431 163.035 34.5331 162.685 33.8831C162.345 33.2231 162.175 32.4781 162.175 31.6481ZM168.94 31.6781C168.94 31.1081 168.82 30.6131 168.58 30.1931C168.35 29.7731 168.045 29.4531 167.665 29.2331C167.285 29.0131 166.875 28.9031 166.435 28.9031C165.995 28.9031 165.585 29.0131 165.205 29.2331C164.825 29.4431 164.515 29.7581 164.275 30.1781C164.045 30.5881 163.93 31.0781 163.93 31.6481C163.93 32.2181 164.045 32.7181 164.275 33.1481C164.515 33.5781 164.825 33.9081 165.205 34.1381C165.595 34.3581 166.005 34.4681 166.435 34.4681C166.875 34.4681 167.285 34.3581 167.665 34.1381C168.045 33.9181 168.35 33.5981 168.58 33.1781C168.82 32.7481 168.94 32.2481 168.94 31.6781ZM175.421 30.5831C175.421 29.5631 175.656 28.6481 176.126 27.8381C176.606 27.0281 177.251 26.3981 178.061 25.9481C178.881 25.4881 179.776 25.2581 180.746 25.2581C181.856 25.2581 182.841 25.5331 183.701 26.0831C184.571 26.6231 185.201 27.3931 185.591 28.3931H183.536C183.266 27.8431 182.891 27.4331 182.411 27.1631C181.931 26.8931 181.376 26.7581 180.746 26.7581C180.056 26.7581 179.441 26.9131 178.901 27.2231C178.361 27.5331 177.936 27.9781 177.626 28.5581C177.326 29.1381 177.176 29.8131 177.176 30.5831C177.176 31.3531 177.326 32.0281 177.626 32.6081C177.936 33.1881 178.361 33.6381 178.901 33.9581C179.441 34.2681 180.056 34.4231 180.746 34.4231C181.376 34.4231 181.931 34.2881 182.411 34.0181C182.891 33.7481 183.266 33.3381 183.536 32.7881H185.591C185.201 33.7881 184.571 34.5581 183.701 35.0981C182.841 35.6381 181.856 35.9081 180.746 35.9081C179.766 35.9081 178.871 35.6831 178.061 35.2331C177.251 34.7731 176.606 34.1381 176.126 33.3281C175.656 32.5181 175.421 31.6031 175.421 30.5831ZM188.895 28.7531C189.145 28.3331 189.475 28.0081 189.885 27.7781C190.305 27.5381 190.8 27.4181 191.37 27.4181V29.1881H190.935C190.265 29.1881 189.755 29.3581 189.405 29.6981C189.065 30.0381 188.895 30.6281 188.895 31.4681V35.8181H187.185V27.5531H188.895V28.7531ZM200.109 31.4831C200.109 31.7931 200.089 32.0731 200.049 32.3231H193.734C193.784 32.9831 194.029 33.5131 194.469 33.9131C194.909 34.3131 195.449 34.5131 196.089 34.5131C197.009 34.5131 197.659 34.1281 198.039 33.3581H199.884C199.634 34.1181 199.179 34.7431 198.519 35.2331C197.869 35.7131 197.059 35.9531 196.089 35.9531C195.299 35.9531 194.589 35.7781 193.959 35.4281C193.339 35.0681 192.849 34.5681 192.489 33.9281C192.139 33.2781 191.964 32.5281 191.964 31.6781C191.964 30.8281 192.134 30.0831 192.474 29.4431C192.824 28.7931 193.309 28.2931 193.929 27.9431C194.559 27.5931 195.279 27.4181 196.089 27.4181C196.869 27.4181 197.564 27.5881 198.174 27.9281C198.784 28.2681 199.259 28.7481 199.599 29.3681C199.939 29.9781 200.109 30.6831 200.109 31.4831ZM198.324 30.9431C198.314 30.3131 198.089 29.8081 197.649 29.4281C197.209 29.0481 196.664 28.8581 196.014 28.8581C195.424 28.8581 194.919 29.0481 194.499 29.4281C194.079 29.7981 193.829 30.3031 193.749 30.9431H198.324ZM200.813 31.6481C200.813 30.8181 200.983 30.0831 201.323 29.4431C201.673 28.8031 202.143 28.3081 202.733 27.9581C203.333 27.5981 203.993 27.4181 204.713 27.4181C205.363 27.4181 205.928 27.5481 206.408 27.8081C206.898 28.0581 207.288 28.3731 207.578 28.7531V27.5531H209.303V35.8181H207.578V34.5881C207.288 34.9781 206.893 35.3031 206.393 35.5631C205.893 35.8231 205.323 35.9531 204.683 35.9531C203.973 35.9531 203.323 35.7731 202.733 35.4131C202.143 35.0431 201.673 34.5331 201.323 33.8831C200.983 33.2231 200.813 32.4781 200.813 31.6481ZM207.578 31.6781C207.578 31.1081 207.458 30.6131 207.218 30.1931C206.988 29.7731 206.683 29.4531 206.303 29.2331C205.923 29.0131 205.513 28.9031 205.073 28.9031C204.633 28.9031 204.223 29.0131 203.843 29.2331C203.463 29.4431 203.153 29.7581 202.913 30.1781C202.683 30.5881 202.568 31.0781 202.568 31.6481C202.568 32.2181 202.683 32.7181 202.913 33.1481C203.153 33.5781 203.463 33.9081 203.843 34.1381C204.233 34.3581 204.643 34.4681 205.073 34.4681C205.513 34.4681 205.923 34.3581 206.303 34.1381C206.683 33.9181 206.988 33.5981 207.218 33.1781C207.458 32.7481 207.578 32.2481 207.578 31.6781ZM213.136 28.9481V33.5231C213.136 33.8331 213.206 34.0581 213.346 34.1981C213.496 34.3281 213.746 34.3931 214.096 34.3931H215.146V35.8181H213.796C213.026 35.8181 212.436 35.6381 212.026 35.2781C211.616 34.9181 211.411 34.3331 211.411 33.5231V28.9481H210.436V27.5531H211.411V25.4981H213.136V27.5531H215.146V28.9481H213.136ZM223.889 31.4831C223.889 31.7931 223.869 32.0731 223.829 32.3231H217.514C217.564 32.9831 217.809 33.5131 218.249 33.9131C218.689 34.3131 219.229 34.5131 219.869 34.5131C220.789 34.5131 221.439 34.1281 221.819 33.3581H223.664C223.414 34.1181 222.959 34.7431 222.299 35.2331C221.649 35.7131 220.839 35.9531 219.869 35.9531C219.079 35.9531 218.369 35.7781 217.739 35.4281C217.119 35.0681 216.629 34.5681 216.269 33.9281C215.919 33.2781 215.744 32.5281 215.744 31.6781C215.744 30.8281 215.914 30.0831 216.254 29.4431C216.604 28.7931 217.089 28.2931 217.709 27.9431C218.339 27.5931 219.059 27.4181 219.869 27.4181C220.649 27.4181 221.344 27.5881 221.954 27.9281C222.564 28.2681 223.039 28.7481 223.379 29.3681C223.719 29.9781 223.889 30.6831 223.889 31.4831ZM222.104 30.9431C222.094 30.3131 221.869 29.8081 221.429 29.4281C220.989 29.0481 220.444 28.8581 219.794 28.8581C219.204 28.8581 218.699 29.0481 218.279 29.4281C217.859 29.7981 217.609 30.3031 217.529 30.9431H222.104Z" fill="white"/>
<defs>
<filter id="filter0_d" x="0" y="0" width="329" height="67" filterUnits="userSpaceOnUse" color-interpolation-filters="sRGB">
<feFlood flood-opacity="0" result="BackgroundImageFix"/>
<feColorMatrix in="SourceAlpha" type="matrix" values="0 0 0 0 0 0 0 0 0 0 0 0 0 0 0 0 0 0 127 0" result="hardAlpha"/>
<feOffset dy="4"/>
<feGaussianBlur stdDeviation="5"/>
<feColorMatrix type="matrix" values="0 0 0 0 0 0 0 0 0 0 0 0 0 0 0 0 0 0 0.2 0"/>
<feBlend mode="normal" in2="BackgroundImageFix" result="effect1_dropShadow"/>
<feBlend mode="normal" in="SourceGraphic" in2="effect1_dropShadow" result="shape"/>
</filter>
</defs>
</svg>
